<?xml version="1.0" standalone="no"?>
<!DOCTYPE svg PUBLIC "-//W3C//DTD SVG 20010904//EN"
 "http://www.w3.org/TR/2001/REC-SVG-20010904/DTD/svg10.dtd">
<svg version="1.0" xmlns="http://www.w3.org/2000/svg"
 width="779.000000pt" height="545.000000pt" viewBox="0 0 779.000000 545.000000"
 preserveAspectRatio="xMidYMid meet">
<metadata>
Created by potrace 1.15, written by Peter Selinger 2001-2017
</metadata>
<g transform="translate(0.000000,545.000000) scale(0.100000,-0.100000)"
fill="#000000" stroke="none">
<path d="M6570 4561 c0 -5 -18 -27 -40 -49 -22 -22 -40 -43 -40 -46 0 -12 -54
-55 -70 -56 -8 0 -24 -7 -34 -15 -14 -11 -22 -12 -27 -4 -4 8 -17 6 -43 -6
-48 -23 -55 -36 -12 -23 29 9 38 8 63 -10 28 -20 29 -20 53 -1 14 10 33 19 43
19 23 0 81 41 86 60 2 8 11 43 21 78 10 34 14 62 9 62 -5 0 -9 -4 -9 -9z"/>
<path d="M5722 856 c-18 -6 -30 -15 -25 -19 4 -5 0 -5 -10 -2 -19 8 -143 -51
-151 -71 -3 -8 -12 -14 -20 -14 -7 0 -16 -8 -19 -19 -4 -16 1 -18 33 -17 21 0
36 4 34 7 -4 8 38 20 45 14 2 -3 -1 -5 -7 -5 -7 0 -12 -4 -12 -10 0 -5 6 -8
13 -6 6 1 9 1 5 -1 -5 -3 -8 -11 -8 -19 0 -15 -8 -17 -115 -38 -38 -8 -59 -15
-45 -17 50 -4 96 3 135 21 54 25 166 105 158 114 -3 3 -1 6 6 6 8 0 11 6 7 16
-3 8 -2 12 4 9 6 -3 10 -2 10 4 0 5 9 12 19 16 11 3 22 13 25 21 4 12 1 14
-14 9 -11 -4 -20 -2 -20 4 0 13 -6 13 -48 -3z"/>
</g>
</svg>
